PathFileType	4	(x/y/z)	Passive_Pref0007.trc
DataRate	CameraRate	NumFrames	NumMarkers	Units	OrigDataRate	OrigDataStartFrame	OrigNumFrames
240	240	5	50	mm	240	225	299
Frame#	Time	R_AC			L_AC			HEAD			STERN			C7			L_IC			R_IC			L_ASIS			R_ASIS			L_GT			R_GT			R_PSIS			L_PSIS			SACRAL			L_LAT_KNEE			L_MED_KNEE			R_LAT_KNEE			R_MED_KNEE			L_LAT_ANK			L_MED_ANK			R_LAT_ANK			R_MED_ANK			L_THIGH_PROX_POST			L_THIGH_PROX_ANT			L_THIGH_DIST_ANT			L_THIGH_DIST_POST			R_THIGH_PROX_POST			R_THIGH_PROX_ANT			R_THIGH_DIST_ANT			R_THIGH_DIST_POST			L_SHANK_PROX_POST			L_SHANK_PROX_ANT			L_SHANK_DIST_ANT			L_SHANK_DIST_POST			R_SHANK_PROX_POST			R_SHANK_PROX_ANT			R_SHANK_DIST_ANT			R_SHANK_DIST_POST			L_HEEL_LAT			L_HEEL_SUP			L_HEEL_MED			R_HEEL_LAT			R_HEEL_SUP			R_HEEL_MED			L_1ST_MET			L_5TH_MET			L_TOE			R_1ST_MET			R_5TH_MET			R_TOE			
		X1	Y1	Z1	X2	Y2	Z2	X3	Y3	Z3	X4	Y4	Z4	X5	Y5	Z5	X6	Y6	Z6	X7	Y7	Z7	X8	Y8	Z8	X9	Y9	Z9	X10	Y10	Z10	X11	Y11	Z11	X12	Y12	Z12	X13	Y13	Z13	X14	Y14	Z14	X15	Y15	Z15	X16	Y16	Z16	X17	Y17	Z17	X18	Y18	Z18	X19	Y19	Z19	X20	Y20	Z20	X21	Y21	Z21	X22	Y22	Z22	X23	Y23	Z23	X24	Y24	Z24	X25	Y25	Z25	X26	Y26	Z26	X27	Y27	Z27	X28	Y28	Z28	X29	Y29	Z29	X30	Y30	Z30	X31	Y31	Z31	X32	Y32	Z32	X33	Y33	Z33	X34	Y34	Z34	X35	Y35	Z35	X36	Y36	Z36	X37	Y37	Z37	X38	Y38	Z38	X39	Y39	Z39	X40	Y40	Z40	X41	Y41	Z41	X42	Y42	Z42	X43	Y43	Z43	X44	Y44	Z44	X45	Y45	Z45	X46	Y46	Z46	X47	Y47	Z47	X48	Y48	Z48	X49	Y49	Z49	X50	Y50	Z50	

225	0.93647	373.98	1530.8	530.11	334.03	1553.8	127.29	422.58	1854.8	350.68	442.23	1492.3	330.58	291.44	1583.7	339.91	331.96	1112.5	161.52	354.47	1129.4	504.09	411.72	1042.7	194.69	420.36	1048	465.33	320.67	955.83	140.16	320.53	963.3	508.58	199.35	1039.6	373.39	198.87	1034.4	286.36	190.04	1002.9	329.6	442.28	568.48	141	472.1	560.85	276.06	369.84	545.72	469.9	374.26	549.95	334.32	145.18	234.99	168.37	135.92	238.38	250.27	279.45	94.54	407.29	312.88	118.55	306.43	407.81	802.72	137.54	469.88	818.4	166.52	490.07	747.12	166.64	435.26	730.3	138.68	293.72	811.33	485.63	353.31	818.63	511.32	355.65	743.63	499.95	304.85	738.74	476.33	413.03	522.11	153.67	473.05	512.59	163.53	435.18	457.61	177.6	380.14	469.18	157.4	303.64	388.87	467.13	361.08	382.86	462.02	350.19	309.07	447.63	294.69	312.55	450.87	57.567	214.52	167.37	58.451	244.95	200.67	45.143	219	236.34	203.34	55.761	365.44	208.13	83.104	329.66	233.23	55.298	305.8	213	87.019	278.51	213.75	90.587	161.09	278.92	73.533	242.74	447.67	43.984	326.1	400.65	36.63	439.24	494.26	49.024	385.96
226	0.94065	378.67	1531.4	530.12	338.72	1554.3	127.27	427.36	1855.4	350.51	446.87	1492.9	330.64	296.13	1584.3	339.92	336.9	1113.3	161.74	358.6	1130	504.31	416.71	1043.7	195.19	424.48	1048.4	465.87	326.16	956.71	140.22	324.14	963.84	508.56	203.7	1040.3	373.08	203.31	1035	286.11	194.54	1003.5	329.25	450.55	569.9	141.55	480.03	562.82	276.72	370.77	546.05	470.04	375.69	550.22	334.44	159.05	231.44	167.81	149.35	234.61	249.59	279.71	94.971	407.33	313.27	118.96	306.44	414.33	804.11	137.84	476.16	820.28	167.36	496.66	749.07	167.46	442.3	731.91	139.06	296.47	812.16	485.44	355.99	819.1	511.29	357.92	744.11	500	307.2	739.51	476.17	422.05	523.03	154.11	482.22	514.53	164.22	445.23	458.91	178.14	390.05	469.56	157.71	304.23	389.37	467.09	361.67	383.24	462.14	350.7	309.46	447.74	295.2	313.06	450.83	71.794	209.49	166.47	71.974	239.98	199.74	59.142	213.73	235.35	203.54	56.524	365.41	208.41	83.863	329.64	233.37	55.984	305.73	228.83	84.75	278.35	230.07	88.234	160.83	295.16	72.288	242.72	447.81	43.9	326.13	400.71	36.59	439.24	494.41	48.746	386
227	0.94483	383.34	1532.1	530.12	343.44	1554.8	127.24	432.14	1855.9	350.34	451.52	1493.4	330.7	300.82	1584.9	339.91	341.81	1114	161.95	362.72	1130.5	504.51	421.68	1044.6	195.67	428.6	1048.7	466.38	331.61	957.57	140.29	327.76	964.37	508.53	208.05	1041	372.77	207.71	1035.6	285.87	199.02	1004.2	328.9	458.74	571.29	142.15	487.85	564.76	277.42	371.69	546.39	470.18	377.1	550.51	334.55	173.04	227.83	167.26	162.88	230.77	248.91	279.97	95.413	407.39	313.67	119.38	306.44	420.78	805.47	138.15	482.34	822.07	168.13	503.17	750.96	168.3	449.23	733.48	139.47	299.25	812.99	485.27	358.67	819.58	511.25	360.2	744.59	500.04	309.56	740.29	476.01	431.01	523.92	154.59	491.31	516.47	164.95	455.23	460.21	178.72	399.92	469.9	158.06	304.81	389.88	467.04	362.25	383.65	462.26	351.2	309.86	447.85	295.69	313.58	450.81	86.177	204.39	165.56	85.639	234.91	198.8	73.284	208.37	234.33	203.76	57.304	365.38	208.7	84.647	329.62	233.5	56.695	305.67	244.8	82.503	278.23	246.54	85.899	160.59	311.54	71.081	242.73	447.94	43.821	326.16	400.77	36.549	439.24	494.56	48.474	386.05
228	0.94901	387.99	1532.7	530.12	348.18	1555.2	127.2	436.91	1856.5	350.16	456.16	1493.9	330.76	305.51	1585.5	339.89	346.7	1114.7	162.14	366.83	1131.1	504.71	426.63	1045.4	196.12	432.72	1049.1	466.86	337.01	958.39	140.36	331.39	964.91	508.5	212.4	1041.6	372.47	212.1	1036.2	285.64	203.5	1004.8	328.56	466.83	572.64	142.77	495.55	566.66	278.17	372.6	546.75	470.31	378.49	550.8	334.67	187.16	224.18	166.71	176.52	226.88	248.24	280.22	95.865	407.44	314.07	119.81	306.46	427.14	806.78	138.48	488.41	823.78	168.85	509.57	752.78	169.15	456.06	735.01	139.92	302.05	813.82	485.1	361.36	820.06	511.21	362.48	745.08	500.09	311.93	741.07	475.86	439.89	524.77	155.1	500.32	518.4	165.73	465.17	461.5	179.34	409.75	470.22	158.44	305.4	390.41	466.99	362.82	384.06	462.39	351.71	310.27	447.97	296.19	314.12	450.79	100.71	199.22	164.65	99.45	229.76	197.86	87.569	202.92	233.29	203.98	58.1	365.36	209.01	85.453	329.62	233.64	57.427	305.61	260.89	80.287	278.14	263.16	83.594	160.36	328.05	69.92	242.77	448.07	43.749	326.19	400.84	36.508	439.23	494.71	48.207	386.1
229	0.95319	392.63	1533.3	530.11	352.95	1555.6	127.15	441.68	1856.9	349.97	460.8	1494.4	330.82	310.2	1586	339.85	351.56	1115.4	162.32	370.94	1131.6	504.89	431.57	1046.2	196.55	436.84	1049.4	467.31	342.38	959.17	140.44	335.03	965.44	508.47	216.76	1042.3	372.16	216.48	1036.7	285.41	207.97	1005.5	328.23	474.82	573.96	143.43	503.15	568.52	278.95	373.52	547.12	470.43	379.88	551.09	334.78	201.4	220.5	166.16	190.27	222.94	247.57	280.48	96.325	407.5	314.46	120.26	306.48	433.41	808.04	138.83	494.37	825.41	169.51	515.88	754.54	170.02	462.79	736.49	140.39	304.88	814.66	484.95	364.06	820.54	511.17	364.78	745.57	500.14	314.32	741.86	475.72	448.7	525.59	155.64	509.25	520.32	166.55	475.07	462.78	180	419.54	470.51	158.85	305.98	390.94	466.95	363.4	384.48	462.51	352.21	310.69	448.09	296.68	314.66	450.77	115.41	193.99	163.74	113.41	224.55	196.91	101.99	197.4	232.24	204.2	58.906	365.35	209.32	86.279	329.63	233.78	58.179	305.56	277.13	78.107	278.08	279.93	81.332	160.16	344.67	68.818	242.84	448.19	43.683	326.23	400.9	36.467	439.23	494.85	47.946	386.15
